# xmcd
#
# Track frame offsets: 
#        150
#        17795
#        33367
#        49092
#        64298
#        79913
#        95236
#        113267
#
# Disc length: 1768 seconds
#
# Revision: 0
# Processed by: cddbd v1.5.2PL0 Copyright (c) Steve Scherf et al.
# Submitted via: ExactAudioCopy v1.0b3
#
DISCID=6206e608
DTITLE=Sabri Fejzullahu - Kafe Muhabet
DYEAR=2010
DGENRE=Pop - Shqip
TTITLE0=Kafe Muhabet
TTITLE1=Ti je Kosovare
TTITLE2=Pikë në Zemër
TTITLE3=Kullerat e Prishtinës
TTITLE4=Ndoshta ti Mundesh pa mua
TTITLE5=Gjakun ma ke pi
TTITLE6=Vallë kam hy në Gjynah
TTITLE7=Kush i lanë Vitet e mia
EXTD=
EXTT0=
EXTT1=
EXTT2=
EXTT3=
EXTT4=
EXTT5=
EXTT6=
EXTT7=
PLAYORDER=
